Coordinates
version=1
nRows=17
nColumns=36
inDegrees=yes

Units are S.I. units (second, meters, Newtons, ...)
If the header above contains a line with 'inDegrees', this indicates whether rotational values are in degrees (yes) or radians (no).

endheader
time	pelvis_tilt	pelvis_list	pelvis_rotation	pelvis_tx	pelvis_ty	pelvis_tz	hip_flexion_r	hip_adduction_r	hip_rotation_r	knee_angle_r	knee_angle_r_beta	ankle_angle_r	subtalar_angle_r	mtp_angle_r	hip_flexion_l	hip_adduction_l	hip_rotation_l	knee_angle_l	knee_angle_l_beta	ankle_angle_l	subtalar_angle_l	mtp_angle_l	lumbar_extension	lumbar_bending	lumbar_rotation	arm_flex_r	arm_add_r	arm_rot_r	elbow_flex_r	pro_sup_r	arm_flex_l	arm_add_l	arm_rot_l	elbow_flex_l	pro_sup_l
      1.21000000	     -7.01902066	      6.38909855	     83.91467356	     -0.28793355	      0.94379460	     -0.11708518	    -10.71343494	    -12.63040668	     -0.70038329	     49.14344186	      0.85771487	    -32.99779023	    -14.56332907	     -7.49999980	     14.17149172	      7.62074087	    -12.88833373	     22.39001317	      0.39077945	     -0.01459697	     -8.78030597	     -7.49999980	    -14.88170526	     -9.00383222	      3.60690911	      2.21574874	     -3.32280731	    -24.23219453	     44.17753207	     93.89774389	     -5.75791643	     -3.48700352	    -44.50800775	     23.65253616	     80.51376282
      1.22000000	     -7.07177649	      6.25471248	     83.50257498	     -0.28838255	      0.94631762	     -0.13036768	     -8.56428123	    -12.72302998	      0.10517794	     51.85852655	      0.90510203	    -31.94449521	    -17.21582928	     -7.49999981	     13.01137851	      7.76548167	    -13.58453043	     21.61303374	      0.37721860	      0.72522261	     -7.73450985	     -7.49999981	    -14.79318808	     -9.08235469	      3.62007425	      2.28305547	     -3.20296663	    -24.58052757	     43.46269734	     93.98737880	     -5.11299276	     -3.43143481	    -44.10354118	     24.22180497	     80.61513767
      1.23000000	     -6.95360870	      6.22098130	     83.34186145	     -0.28925674	      0.94911940	     -0.14341288	     -6.58311417	    -12.58643518	      0.44474868	     54.33749459	      0.94836819	    -29.50395994	    -19.16192881	     -7.49999981	     11.66245535	      7.91969901	    -13.48573546	     20.69424039	      0.36118263	      1.51322652	     -7.14735972	     -7.49999981	    -14.92467978	     -8.85552760	      3.34109721	      2.36877781	     -3.22895083	    -24.61060334	     42.89730397	     93.67774439	     -4.29234043	     -3.41900262	    -43.73553183	     24.51341124	     80.45744613
      1.24000000	     -7.08180438	      5.75811909	     82.66029660	     -0.28917896	      0.95116999	     -0.15625646	     -3.75241335	    -12.70563476	      1.11303761	     56.82945770	      0.99186115	    -26.55251819	    -21.28543218	     -7.49999981	     10.78665151	      8.02994822	    -14.72716812	     19.65194847	      0.34299121	      1.96039463	     -5.74393670	     -7.49999981	    -14.45384072	     -9.05722565	      3.62619810	      2.47608780	     -3.11970088	    -25.07361256	     42.02892149	     93.94576751	     -3.69718384	     -3.47133072	    -43.00434515	     25.24517213	     80.70470090
      1.25000000	     -6.99472414	      5.64724063	     82.28774729	     -0.28944191	      0.95377768	     -0.16935859	     -1.54216937	    -12.49276869	      1.50741077	     58.77850521	      1.02587845	    -23.52930845	    -23.47154798	     -7.49999981	      9.43950618	      8.10716367	    -15.23884494	     18.55095408	      0.32377523	      2.44957116	     -4.70023087	     -7.49999981	    -14.41867508	     -8.95504732	      3.61292406	      2.54570727	     -3.05070445	    -25.40806996	     41.33850933	     94.29474130	     -2.97362566	     -3.50851682	    -42.36905710	     25.79395404	     81.01289907
      1.26000000	     -6.73283732	      5.07409013	     82.06881568	     -0.28979257	      0.95544095	     -0.18175993	      1.21062958	    -11.95400787	      1.72930887	     60.53462774	      1.05652857	    -20.90556179	    -25.26484179	     -7.49999983	      8.84294552	      7.85645250	    -15.75035589	     17.95934169	      0.31344964	      3.16548309	     -3.32701695	     -7.49999983	    -13.98542682	     -8.58678481	      3.50145840	      2.80509560	     -2.82780201	    -26.77433881	     40.45222221	     99.16105622	     -2.42567012	     -3.80967080	    -41.05250586	     26.48027169	     84.38870009
      1.27000000	     -6.55674581	      4.80264763	     81.77121598	     -0.29003418	      0.95750863	     -0.19458831	      3.56130774	    -11.61170025	      1.83104578	     61.77384533	      1.07815699	    -18.31844377	    -26.58433419	     -7.49999985	      7.71705141	      7.82905941	    -16.24065068	     16.91522313	      0.29522634	      3.60302153	     -2.13965130	     -7.49999985	    -13.79597809	     -8.33846752	      3.42444984	      2.82903609	     -2.82612416	    -27.15443472	     39.87342236	     99.43435254	     -1.75896712	     -3.97992263	    -40.11327500	     27.10449221	     84.92744590
      1.28000000	     -6.35170535	      4.49623872	     81.59502917	     -0.29058388	      0.95931616	     -0.20740230	      5.86278573	    -11.29273306	      1.62704059	     62.67762390	      1.09393090	    -15.54806372	    -27.69366493	     -7.49999985	      6.65594577	      7.81561023	    -16.49708480	     15.92423297	      0.27793030	      4.03592845	     -1.17485383	     -7.49999985	    -13.61519024	     -8.01848926	      3.29911670	      2.66448004	     -3.04312489	    -26.85517387	     39.49558987	     97.37742904	     -1.06099766	     -4.14009919	    -38.84523029	     27.83439127	     83.36217129
      1.29000000	     -6.12781185	      4.24729759	     81.52026121	     -0.29110992	      0.96114069	     -0.22037908	      7.94902300	    -10.93486414	      1.31419686	     63.13067764	      1.10183818	    -12.77294371	    -28.54274659	     -7.49999985	      5.46977220	      7.80990763	    -16.74635129	     14.81328194	      0.25854054	      4.21071877	     -0.21367593	     -7.49999985	    -13.46926151	     -7.67640226	      3.05656177	      2.45351290	     -3.15569950	    -26.90759838	     39.23702043	     96.26872870	     -0.33912103	     -4.26751426	    -38.06885035	     28.53089211	     82.36206151
      1.30000000	     -5.80064256	      3.92749173	     81.56702292	     -0.29163896	      0.96268397	     -0.23308475	      9.97976890	    -10.49719468	      0.68204234	     63.19169807	      1.10290319	     -9.86437304	    -28.97577950	     -7.49999986	      4.41020229	      7.65853421	    -16.92926319	     13.82464476	      0.24128557	      4.64025312	      1.09798100	     -7.49999986	    -13.34154333	     -7.21292458	      2.77776387	      2.32593635	     -3.12234022	    -27.68684355	     38.97694168	     98.10495905	      0.20188706	     -4.67078666	    -36.41572811	     29.49832736	     83.43950963
      1.31000000	     -5.46007385	      3.58670477	     81.80950601	     -0.29246527	      0.96409112	     -0.24582552	     11.89670593	    -10.02528958	     -0.03242021	     62.91709834	      1.09811052	     -7.61144136	    -29.32189320	     -7.49999986	      3.35928980	      7.54700287	    -16.66982971	     12.77014489	      0.22288107	      4.67774516	      1.68832539	     -7.49999986	    -13.16323496	     -6.66820864	      2.29025652	      2.13136802	     -3.33143554	    -27.54996886	     38.65217289	     96.93412495	      1.16045005	     -4.82144759	    -35.91125621	     29.94222160	     82.45824589
      1.32000000	     -5.13538014	      3.35640384	     81.89278822	     -0.29314273	      0.96528380	     -0.25842397	     13.66023012	     -9.64458346	     -0.76278288	     62.29648190	      1.08727872	     -5.42490025	    -28.96150479	     -7.49999986	      2.17734997	      7.43808569	    -16.91598586	     11.65887643	      0.20348578	      5.01543065	      3.16437315	     -7.49999986	    -13.15837019	     -6.16804876	      2.04818983	      1.94058646	     -3.31628611	    -28.63706909	     38.64673059	     99.78419177	      1.86871662	     -5.13028807	    -34.60446008	     30.91382083	     83.94256319
      1.33000000	     -4.70484849	      3.10646445	     82.11439417	     -0.29404339	      0.96631375	     -0.27097647	     15.27041997	     -9.15764803	     -1.60534182	     61.28257511	      1.06958271	     -3.56367950	    -28.52795419	     -7.49999986	      1.05714644	      7.24508303	    -16.66401952	     10.63810738	      0.18567000	      5.16998761	      3.56612222	     -7.49999986	    -13.14634045	     -5.52240682	      1.64961904	      1.64413872	     -3.61582099	    -28.34293322	     38.63523948	     96.64079035	      2.79081703	     -5.31033520	    -33.60493543	     31.54962139	     81.63559167
      1.34000000	     -4.46564143	      2.75212567	     82.31198331	     -0.29502566	      0.96669762	     -0.28360211	     17.00762118	     -8.82192647	     -2.28238989	     60.07159820	      1.04844718	     -2.62248325	    -28.59470593	     -7.49999986	      0.10327249	      7.23151732	    -16.55441095	      9.68182865	      0.16897979	      5.38924554	      4.25016458	     -7.49999986	    -12.96091723	     -5.05261981	      1.33373974	      1.26992002	     -3.85679270	    -28.50821884	     38.69368074	     96.84521365	      3.78317195	     -5.36320562	    -33.36624256	     32.25195127	     81.80575756
      1.35000000	     -4.15536477	      2.81787864	     82.58142797	     -0.29586002	      0.96737986	     -0.29634520	     18.07365661	     -8.57278595	     -3.26248434	     58.45560646	      1.02024280	     -1.14065731	    -27.47233350	     -7.49999986	     -1.30755155	      7.12124448	    -16.98182626	      8.76186816	      0.15292345	      5.84383176	      6.16828351	     -7.49999986	    -13.34662371	     -4.59434877	      0.96270140	      0.89164273	     -3.96299450	    -29.05194868	     39.12841888	     97.46808097	      4.61465644	     -5.72808312	    -32.07261417	     33.20131232	     82.63111589
      1.36000000	     -3.89733965	      2.46679506	     82.89319196	     -0.29672829	      0.96717715	     -0.30897673	     19.54943129	     -8.29203207	     -4.22103172	     56.63235664	      0.98842109	     -0.54887604	    -27.29015660	     -7.49999986	     -2.17792866	      7.01249298	    -16.96577208	      8.01344818	      0.13986106	      6.11805185	      6.84676616	     -7.49999986	    -13.19664723	     -4.14087457	      0.57995063	      0.51370426	     -4.18266883	    -29.28677850	     39.21924795	     97.62122259	      5.64552624	     -5.89372718	    -31.67621327	     33.81834563	     82.82349299
      1.37000000	     -3.65598262	      2.68347161	     83.28339497	     -0.29764582	      0.96726324	     -0.32166863	     20.26114468	     -8.17564850	     -5.36702627	     54.48038306	      0.95086206	      0.43285863	    -26.31211129	     -7.49999986	     -3.70432440	      6.95596059	    -17.30900152	      7.20883618	      0.12581793	      6.63220809	      8.60415487	     -7.49999986	    -13.72450204	     -3.75366058	      0.09359650	      0.25723823	     -4.25054359	    -29.82874188	     39.52180285	     97.90249606	      6.57048248	     -6.32267973	    -30.41285707	     34.71275415	     83.45035593
